<?xml version="1.0" encoding="utf-8"?>
<!-- Generator: Adobe Illustrator 21.0.2, SVG Export Plug-In . SVG Version: 6.00 Build 0)  -->
<svg version="1.1" id="Layer_1" xmlns="http://www.w3.org/2000/svg" xmlns:xlink="http://www.w3.org/1999/xlink" x="0px" y="0px"
	 viewBox="0 0 500 500" style="enable-background:new 0 0 500 500;" xml:space="preserve">
<style type="text/css">
	.st0{fill:#E5E3DA;}
	.st1{fill:#F9F7ED;}
	.st2{fill:#EFCA2F;}
	.st3{fill:#EAC11E;}
	.st4{fill:#F5CE2C;}
	.st5{fill:#DD9027;}
	.st6{fill:#E7C01F;}
	.st7{font-family:'Merriweather-Regular';}
	.st8{font-size:43.8617px;}
	.st9{opacity:0.3;fill:#EBB220;enable-background:new    ;}
	.st10{fill:#E6B042;}
	.st11{opacity:0.2;fill:#FFFFFF;enable-background:new    ;}
</style>
<g>
	<g>
		<g>
			<g>
				<path class="st0" d="M162.5,303v24.6c0,7.8,43.6,14.2,97.3,14.2s97.3-6.4,97.3-14.2V303H162.5z"/>
				<ellipse class="st1" cx="259.7" cy="303" rx="97.3" ry="14.2"/>
			</g>
			<g>
				<path class="st2" d="M259.7,318.6c-35.5,0-62.1-1.8-79-5.4c-10.4-2.2-16.5-4.5-18.3-7.7c-0.6-1,0-2.9,0-2.9
					c0-0.2,5.2,13.2,97.2,13.2s97.2-13.3,97.3-13c0,0,0.6,1.4,0,2.4c-1.8,3.2-7.9,5.9-18.3,8.1C321.8,316.8,295.2,318.6,259.7,318.6
					z"/>
			</g>
			<g>
				<path class="st2" d="M259.7,341.9c-35.5,0-62.1-1.8-79-5.4c-10.4-2.2-16.5-4.5-18.3-7.7c-0.6-1,0-2.9,0-2.9
					c0-0.2,5.2,13.2,97.2,13.2s97.2-13.3,97.3-13c0,0,0.6,1.4,0,2.4c-1.8,3.2-7.9,5.9-18.3,8.1C321.8,340.1,295.2,341.9,259.7,341.9
					z"/>
			</g>
		</g>
	</g>
	<g>
		<g>
			<path class="st2" d="M267.1,219.6c1.4-1.9,2.2-4.2,2.2-6.7c0-6.3-5.1-11.4-11.4-11.4c-6.3,0-11.4,5.1-11.4,11.4
				c0,2.5,0.8,4.8,2.2,6.7l0,0c0,0,11.6,20.3,0,45h9.2h9.2C255.5,239.9,267.1,219.6,267.1,219.6L267.1,219.6z"/>
			<rect x="233.8" y="264.7" class="st3" width="48.1" height="27.9"/>
			<polygon class="st4" points="281.9,292.6 257.9,292.6 233.9,292.6 228.7,302.5 257.9,302.5 287.1,302.5 			"/>
			<rect x="239.6" y="271" class="st5" width="36.6" height="15.3"/>
		</g>
		<g>
			<g>
				<path class="st4" d="M198.8,152.1c6-5.3,16.1-3.5,16.5-3.4l-0.6,3.2c-0.1,0-9-1.6-13.8,2.6c-2.2,2-3.2,5-3,8.9
					c0.5,9,8.7,14.6,16,19.6c5,3.4,9.4,6.4,10,10.1l-0.4,0.1c0.2,0.5,0.3,1.1,0.2,1.7c-0.3,1.9-2,3.2-3.9,2.9s-3.2-2-2.9-3.9
					c0.2-1.3,1.1-2.3,2.3-2.7c-1.6-1.7-4.3-3.6-7.1-5.5c-7.5-5.1-16.8-11.5-17.4-22.1C194.4,158.7,195.8,154.8,198.8,152.1z"/>
				<path class="st4" d="M317.4,152.1c-6-5.3-16.1-3.5-16.6-3.4l0.6,3.2c0.1,0,9-1.6,13.8,2.6c2.2,2,3.2,5,3,8.9
					c-0.5,9-8.7,14.6-16,19.6c-5,3.4-9.4,6.4-10,10.1l0.4,0.1c-0.2,0.5-0.3,1.1-0.2,1.7c0.3,1.9,2,3.2,3.9,2.9s3.2-2,2.9-3.9
					c-0.2-1.3-1.1-2.3-2.3-2.7c1.6-1.7,4.3-3.6,7.1-5.5c7.5-5.1,16.8-11.5,17.4-22.1C321.8,158.7,320.4,154.8,317.4,152.1z"/>
			</g>
			<g>
				<path class="st4" d="M301.8,131.1h-44.1l0,0h-44.1c0,0-3.8,89.9,44.1,89.9l0,0l0,0l0,0l0,0C307.3,221,301.8,131.1,301.8,131.1z"
					/>
				<g>
					<g>
						<circle class="st6" cx="257.8" cy="176.1" r="23.1"/>
					</g>
					<text transform="matrix(1 0 0 1 248.288 189.3627)" class="st5 st7 st8">1</text>
				</g>
				<path class="st9" d="M282.1,131.1c0,0.8-0.1,1.6-0.1,2.5c-0.8,44.3-47.5,62.5-56,65.4c5.7,12.8,16.2,21.9,31.7,21.9l0,0
					c49.5,0,44.1-89.9,44.1-89.9h-19.7V131.1z"/>
				<path class="st10" d="M305.2,131.1c0,1.5-1.7,2.7-3.7,2.7h-87.3c-2,0-3.7-1.2-3.7-2.7l0,0c0-1.5,1.7-2.7,3.7-2.7h87.3
					C303.6,128.5,305.2,129.7,305.2,131.1L305.2,131.1z"/>
				<path class="st11" d="M240.7,139.6c7.7-0.1,14.2,8,14.4,18c0.2,10.1-5.9,18.3-13.6,18.4c-7.7,0.1-14.2-8-14.4-18
					C226.8,148,232.9,139.7,240.7,139.6z"/>
			</g>
		</g>
	</g>
	<g>
		<g>
			<g>
				<g>
					<g>
						<path class="st10" d="M252.8,248.2c-0.2,0-19.5-3.1-39.1-16c-18.1-11.8-40.1-34.6-42.5-76l1.2-0.1c2.3,40.8,24.1,63.3,41.9,75
							c19.4,12.7,38.4,15.7,38.6,15.8L252.8,248.2z"/>
					</g>
					<g>
						<path class="st10" d="M252.9,247c0,0-11.5-1.4-10.8-12.2C242.1,234.9,251.6,234.7,252.9,247z"/>
						<path class="st10" d="M238.6,255.8c0,0,11.3,2.5,14.2-7.8C252.8,248,244,244.6,238.6,255.8z"/>
					</g>
					<g>
						<path class="st10" d="M240.9,244.1c0,0-11-3.6-8.3-14C232.6,230.1,241.9,231.7,240.9,244.1z"/>
						<path class="st10" d="M225.1,250c0,0,10.6,4.6,15.5-5C240.6,245,232.5,240,225.1,250z"/>
					</g>
					<g>
						<path class="st10" d="M229,239.5c0,0-10.6-4.6-7-14.7C222.1,224.8,231.2,227.2,229,239.5z"/>
						<path class="st10" d="M212.8,243.9c0,0,10.1,5.6,15.9-3.5C228.7,240.4,221.1,234.6,212.8,243.9z"/>
					</g>
					<g>
						<path class="st10" d="M217.3,233.1c0,0-10.2-5.5-5.6-15.2C211.7,217.9,220.6,221.1,217.3,233.1z"/>
						<path class="st10" d="M200.8,236.1c0,0,9.6,6.4,16.1-2.1C216.9,234,209.9,227.6,200.8,236.1z"/>
					</g>
					<g>
						<path class="st10" d="M206.2,225.4c0,0-9.2-7-3.3-15.9C202.9,209.4,211.2,214,206.2,225.4z"/>
						<path class="st10" d="M189.4,225.8c0,0,8.5,7.8,16.2,0.3C205.6,226.2,199.6,218.8,189.4,225.8z"/>
					</g>
					<g>
						<path class="st10" d="M196.5,216.2c0,0-7.9-8.4-0.6-16.2C195.9,200,203.4,205.8,196.5,216.2z"/>
						<path class="st10" d="M179.8,213.8c0,0,7.1,9.1,16,3.1C195.8,216.9,191.1,208.6,179.8,213.8z"/>
					</g>
					<g>
						<path class="st10" d="M187.6,205c0,0-6-9.9,2.9-16C190.5,189,196.5,196.3,187.6,205z"/>
						<path class="st10" d="M171.8,199.2c0,0,5,10.4,15,6.3C186.8,205.5,184,196.5,171.8,199.2z"/>
					</g>
					<g>
						<path class="st10" d="M180.3,191.7c0,0-5.2-10.3,4.1-15.7C184.5,176,189.9,183.7,180.3,191.7z"/>
						<path class="st10" d="M165.1,184.6c0,0,4.1,10.8,14.4,7.5C179.5,192.1,177.4,182.9,165.1,184.6z"/>
					</g>
					<g>
						<path class="st10" d="M176,179.1c0,0-4.3-10.7,5.4-15.3C181.4,163.7,186.2,171.9,176,179.1z"/>
						<path class="st10" d="M161.4,170.8c0,0,3.3,11.1,13.8,8.6C175.1,179.5,173.8,170.1,161.4,170.8z"/>
					</g>
					<g>
						<path class="st10" d="M173.5,167.4c0,0-2.8-11.2,7.5-14.4C181,152.9,184.6,161.7,173.5,167.4z"/>
						<path class="st10" d="M160.2,157.1c0,0,1.7,11.4,12.4,10.5C172.6,167.6,172.6,158.1,160.2,157.1z"/>
					</g>
					<path class="st10" d="M173.1,141.2c0,0,7,9.2-1.2,16.2C171.9,157.5,165.1,150.8,173.1,141.2z"/>
				</g>
			</g>
			<g>
				<g>
					<g>
						<g>
							<path class="st10" d="M262.3,248.2c0.2,0,19.5-3.1,39.1-16c18.1-11.8,40.1-34.6,42.5-76l-1.2-0.1
								c-2.3,40.8-24.1,63.3-41.9,75c-19.4,12.7-38.4,15.7-38.6,15.8L262.3,248.2z"/>
						</g>
						<g>
							<path class="st10" d="M262.1,247c0,0,11.5-1.4,10.8-12.2C272.9,234.9,263.4,234.7,262.1,247z"/>
							<path class="st10" d="M276.5,255.8c0,0-11.3,2.5-14.2-7.8C262.2,248,271.1,244.6,276.5,255.8z"/>
						</g>
						<g>
							<path class="st10" d="M274.2,244.1c0,0,11-3.6,8.3-14C282.5,230.1,273.1,231.7,274.2,244.1z"/>
							<path class="st10" d="M289.9,250c0,0-10.6,4.6-15.5-5C274.5,245,282.5,240,289.9,250z"/>
						</g>
						<g>
							<path class="st10" d="M286,239.5c0,0,10.6-4.6,7-14.7C293,224.8,283.8,227.2,286,239.5z"/>
							<path class="st10" d="M302.3,243.9c0,0-10.1,5.6-15.9-3.5C286.4,240.4,294,234.6,302.3,243.9z"/>
						</g>
						<g>
							<path class="st10" d="M297.7,233.1c0,0,10.2-5.5,5.6-15.2C303.4,217.9,294.4,221.1,297.7,233.1z"/>
							<path class="st10" d="M314.3,236.1c0,0-9.6,6.4-16.1-2.1C298.2,234,305.2,227.6,314.3,236.1z"/>
						</g>
						<g>
							<path class="st10" d="M308.9,225.4c0,0,9.2-7,3.3-15.9C312.2,209.4,303.8,214,308.9,225.4z"/>
							<path class="st10" d="M325.7,225.8c0,0-8.5,7.8-16.2,0.3C309.5,226.2,315.4,218.8,325.7,225.8z"/>
						</g>
						<g>
							<path class="st10" d="M318.6,216.2c0,0,7.9-8.4,0.6-16.2C319.2,200,311.7,205.8,318.6,216.2z"/>
							<path class="st10" d="M335.2,213.8c0,0-7.1,9.1-16,3.1C319.3,216.9,323.9,208.6,335.2,213.8z"/>
						</g>
						<g>
							<path class="st10" d="M327.4,205c0,0,6-9.9-2.9-16C324.6,189,318.5,196.3,327.4,205z"/>
							<path class="st10" d="M343.2,199.2c0,0-5,10.4-15,6.3C328.2,205.5,331.1,196.5,343.2,199.2z"/>
						</g>
						<g>
							<path class="st10" d="M334.7,191.7c0,0,5.2-10.3-4.1-15.7C330.6,176,325.2,183.7,334.7,191.7z"/>
							<path class="st10" d="M350,184.6c0,0-4.1,10.8-14.4,7.5C335.6,192.1,337.7,182.9,350,184.6z"/>
						</g>
						<g>
							<path class="st10" d="M339,179.1c0,0,4.3-10.7-5.4-15.3C333.7,163.7,328.9,171.9,339,179.1z"/>
							<path class="st10" d="M353.7,170.8c0,0-3.3,11.1-13.8,8.6C339.9,179.5,341.3,170.1,353.7,170.8z"/>
						</g>
						<g>
							<path class="st10" d="M341.6,167.4c0,0,2.8-11.2-7.5-14.4C334.1,152.9,330.5,161.7,341.6,167.4z"/>
							<path class="st10" d="M354.9,157.1c0,0-1.7,11.4-12.4,10.5C342.5,167.6,342.5,158.1,354.9,157.1z"/>
						</g>
						<path class="st10" d="M342,141.2c0,0-7,9.2,1.2,16.2C343.1,157.5,349.9,150.8,342,141.2z"/>
					</g>
				</g>
			</g>
		</g>
	</g>
</g>
</svg>
