<?xml version="1.0" encoding="utf-8"?>
<!-- Generator: Adobe Illustrator 21.0.2, SVG Export Plug-In . SVG Version: 6.00 Build 0)  -->
<svg version="1.1" id="Layer_1" xmlns="http://www.w3.org/2000/svg" xmlns:xlink="http://www.w3.org/1999/xlink" x="0px" y="0px"
	 viewBox="0 0 500 500" style="enable-background:new 0 0 500 500;" xml:space="preserve">
<style type="text/css">
	.st0{fill:#E5E3DA;}
	.st1{fill:#F9F7ED;}
	.st2{fill:#B3B1B2;}
	.st3{fill:#D3D3D3;}
	.st4{fill:#848384;}
	.st5{fill:#BCBBBB;}
	.st6{font-family:'Merriweather-Light';}
	.st7{font-size:38.0291px;}
	.st8{opacity:0.3;fill:#807F7F;enable-background:new    ;}
	.st9{opacity:0.2;fill:#FFFFFF;enable-background:new    ;}
</style>
<g>
	<g>
		<g>
			<g>
				<path class="st0" d="M165.8,309.2v21.4c0,6.8,37.8,12.3,84.3,12.3c46.6,0,84.3-5.5,84.3-12.3v-21.4H165.8z"/>
				<ellipse class="st1" cx="250.1" cy="309.2" rx="84.3" ry="12.3"/>
			</g>
			<g>
				<path class="st2" d="M250.1,322.7c-30.8,0-53.8-1.6-68.5-4.7c-9-1.9-14.3-3.9-15.9-6.7c-0.5-0.9,0-2.5,0-2.5
					c0-0.2,4.5,11.4,84.3,11.4s84.3-11.5,84.3-11.3c0,0,0.5,1.2,0,2c-1.6,2.8-6.8,5.1-15.9,7C303.9,321.1,280.9,322.7,250.1,322.7z"
					/>
			</g>
			<g>
				<path class="st2" d="M250.1,342.9c-30.8,0-53.8-1.6-68.5-4.7c-9-1.9-14.3-3.9-15.9-6.7c-0.5-0.9,0-2.5,0-2.5
					c0-0.2,4.5,11.4,84.3,11.4s84.3-11.5,84.3-11.3c0,0,0.5,1.2,0,2c-1.6,2.8-6.8,5.1-15.9,7C303.9,341.3,280.9,342.9,250.1,342.9z"
					/>
			</g>
		</g>
	</g>
	<g>
		<g>
			<path class="st3" d="M256.5,236.9c1.2-1.6,1.9-3.6,1.9-5.8c0-5.5-4.4-9.9-9.9-9.9s-9.9,4.4-9.9,9.9c0,2.2,0.7,4.2,1.9,5.8l0,0
				c0,0,10.1,17.6,0,39.1h8h8C246.5,254.5,256.5,236.9,256.5,236.9L256.5,236.9z"/>
			<rect x="227.7" y="275.9" class="st2" width="41.7" height="24.2"/>
			<polygon class="st3" points="269.4,300.1 248.6,300.1 227.7,300.1 223.2,308.8 248.6,308.8 273.9,308.8 			"/>
			<rect x="232.7" y="281.4" class="st4" width="31.7" height="13.3"/>
		</g>
		<g>
			<g>
				<path class="st2" d="M197.3,178.4c5.2-4.6,14-3,14.3-2.9l-0.5,2.8c-0.1,0-7.8-1.4-12,2.3c-1.9,1.7-2.8,4.3-2.6,7.7
					c0.5,7.8,7.6,12.7,13.8,17c4.4,3,8.1,5.6,8.7,8.8l-0.4,0.1c0.2,0.4,0.2,0.9,0.2,1.4c-0.2,1.6-1.7,2.7-3.3,2.5s-2.7-1.7-2.5-3.3
					c0.2-1.1,1-2,2-2.4c-1.4-1.5-3.7-3.1-6.2-4.7c-6.5-4.4-14.5-9.9-15.1-19.1C193.5,184,194.7,180.7,197.3,178.4z"/>
				<path class="st2" d="M300.2,178.4c-5.2-4.6-14-3-14.3-2.9l0.5,2.8c0.1,0,7.8-1.4,12,2.3c1.9,1.7,2.8,4.3,2.6,7.7
					c-0.5,7.8-7.6,12.7-13.8,17c-4.4,3-8.1,5.6-8.7,8.8l0.4,0.1c-0.2,0.4-0.2,0.9-0.2,1.4c0.2,1.6,1.7,2.7,3.3,2.5
					c1.6-0.2,2.7-1.7,2.5-3.3c-0.2-1.1-1-2-2-2.4c1.4-1.5,3.7-3.1,6.2-4.7c6.5-4.4,14.5-9.9,15.1-19.1
					C303.9,184,302.8,180.7,300.2,178.4z"/>
			</g>
			<g>
				<path class="st3" d="M286.7,160.1h-38.2l0,0h-38.2c0,0-3.3,77.9,38.2,77.9l0,0l0,0l0,0l0,0C291.4,238.1,286.7,160.1,286.7,160.1
					z"/>
				<g>
					<g>
						<circle class="st5" cx="248.5" cy="199.1" r="20"/>
					</g>
					<text transform="matrix(1 0 0 1 237.502 213.3446)" class="st4 st6 st7">2</text>
				</g>
				<path class="st8" d="M269.5,160.1c0,0.7-0.1,1.4-0.1,2.2c-0.7,38.4-41.4,54.3-48.7,56.8c4.9,11.1,14.2,18.9,27.7,18.9l0,0
					c42.9,0,38.2-77.9,38.2-77.9H269.5z"/>
				<path class="st2" d="M289.6,160.1c0,1.3-1.4,2.3-3.2,2.3h-75.7c-1.8,0-3.2-1-3.2-2.3l0,0c0-1.3,1.4-2.3,3.2-2.3h75.7
					C288.2,157.8,289.6,158.9,289.6,160.1L289.6,160.1z"/>
				<path class="st9" d="M233.6,167.5c6.7-0.1,12.3,6.9,12.5,15.6c0.2,8.7-5.1,15.9-11.8,16s-12.3-6.9-12.5-15.6
					C221.6,174.7,226.9,167.6,233.6,167.5z"/>
			</g>
		</g>
	</g>
</g>
</svg>
