<?xml version="1.0" encoding="utf-8"?>
<!-- Generator: Adobe Illustrator 21.0.2, SVG Export Plug-In . SVG Version: 6.00 Build 0)  -->
<svg version="1.1" id="Layer_1" xmlns="http://www.w3.org/2000/svg" xmlns:xlink="http://www.w3.org/1999/xlink" x="0px" y="0px"
	 viewBox="0 0 500 500" style="enable-background:new 0 0 500 500;" xml:space="preserve">
<style type="text/css">
	.st0{fill:#E5E3DA;}
	.st1{fill:#F9F7ED;}
	.st2{fill:#EE9749;}
	.st3{fill:#E07E2D;}
	.st4{fill:#BF6028;}
	.st5{fill:#D37F37;}
	.st6{font-family:'Merriweather-Light';}
	.st7{font-size:38.0291px;}
	.st8{opacity:0.3;fill:#C66E29;enable-background:new    ;}
	.st9{opacity:0.2;fill:#FFFFFF;enable-background:new    ;}
</style>
<g>
	<g>
		<g>
			<g>
				<path class="st0" d="M165.9,308.5v21.4c0,6.8,37.8,12.3,84.3,12.3c46.6,0,84.3-5.5,84.3-12.3v-21.4H165.9z"/>
				<ellipse class="st1" cx="250.3" cy="308.5" rx="84.3" ry="12.3"/>
			</g>
			<g>
				<path class="st2" d="M250.3,322c-30.8,0-53.8-1.6-68.5-4.7c-9-1.9-14.3-3.9-15.9-6.7c-0.5-0.9,0-2.5,0-2.5
					c0-0.2,4.5,11.4,84.3,11.4s84.3-11.5,84.3-11.3c0,0,0.5,1.2,0,2c-1.6,2.8-6.8,5.1-15.9,7C304.1,320.4,281,322,250.3,322z"/>
			</g>
			<g>
				<path class="st2" d="M250.3,342.2c-30.8,0-53.8-1.6-68.5-4.7c-9-1.9-14.3-3.9-15.9-6.7c-0.5-0.9,0-2.5,0-2.5
					c0-0.2,4.5,11.4,84.3,11.4s84.3-11.5,84.3-11.3c0,0,0.5,1.2,0,2c-1.6,2.8-6.8,5.1-15.9,7C304.1,340.6,281,342.2,250.3,342.2z"/>
			</g>
		</g>
	</g>
	<g>
		<g>
			<path class="st2" d="M256.6,236.1c1.2-1.6,1.9-3.6,1.9-5.8c0-5.5-4.4-9.9-9.9-9.9s-9.9,4.4-9.9,9.9c0,2.2,0.7,4.2,1.9,5.8l0,0
				c0,0,10.1,17.6,0,39.1h8h8C246.6,253.8,256.6,236.1,256.6,236.1L256.6,236.1z"/>
			<rect x="227.8" y="275.2" class="st3" width="41.7" height="24.2"/>
			<polygon class="st2" points="269.5,299.4 248.7,299.4 227.8,299.4 223.4,308.1 248.7,308.1 274,308.1 			"/>
			<rect x="232.8" y="280.7" class="st4" width="31.7" height="13.3"/>
		</g>
		<g>
			<g>
				<path class="st2" d="M197.4,177.6c5.2-4.6,14-3,14.3-2.9l-0.5,2.8c-0.1,0-7.8-1.4-12,2.3c-1.9,1.7-2.8,4.3-2.6,7.7
					c0.5,7.8,7.6,12.7,13.8,17c4.4,3,8.1,5.6,8.7,8.8l-0.4,0.1c0.2,0.4,0.2,0.9,0.2,1.4c-0.2,1.6-1.7,2.7-3.3,2.5s-2.7-1.7-2.5-3.3
					c0.2-1.1,1-2,2-2.4c-1.4-1.5-3.7-3.1-6.2-4.7c-6.5-4.4-14.5-9.9-15.1-19.1C193.6,183.3,194.8,179.9,197.4,177.6z"/>
				<path class="st2" d="M300.3,177.6c-5.2-4.6-14-3-14.3-2.9l0.5,2.8c0.1,0,7.8-1.4,12,2.3c1.9,1.7,2.8,4.3,2.6,7.7
					c-0.5,7.8-7.6,12.7-13.8,17c-4.4,3-8.1,5.6-8.7,8.8l0.4,0.1c-0.2,0.4-0.2,0.9-0.2,1.4c0.2,1.6,1.7,2.7,3.3,2.5
					c1.6-0.2,2.7-1.7,2.5-3.3c-0.2-1.1-1-2-2-2.4c1.4-1.5,3.7-3.1,6.2-4.7c6.5-4.4,14.5-9.9,15.1-19.1
					C304.1,183.3,302.9,179.9,300.3,177.6z"/>
			</g>
			<g>
				<path class="st2" d="M286.8,159.4h-38.2l0,0h-38.2c0,0-3.3,77.9,38.2,77.9l0,0l0,0l0,0l0,0C291.5,237.4,286.8,159.4,286.8,159.4
					z"/>
				<g>
					<g>
						<circle class="st5" cx="248.6" cy="198.4" r="20"/>
					</g>
					<text transform="matrix(1 0 0 1 238.0643 208.1618)" class="st4 st6 st7">3</text>
				</g>
				<path class="st8" d="M269.6,159.4c0,0.7-0.1,1.4-0.1,2.2c-0.7,38.4-41.4,54.3-48.7,56.8c4.9,11.1,14.2,18.9,27.7,18.9l0,0
					c42.9,0,38.2-77.9,38.2-77.9H269.6z"/>
				<path class="st3" d="M289.7,159.4c0,1.3-1.4,2.3-3.2,2.3h-75.7c-1.8,0-3.2-1-3.2-2.3l0,0c0-1.3,1.4-2.3,3.2-2.3h75.7
					C288.3,157.1,289.7,158.2,289.7,159.4L289.7,159.4z"/>
				<path class="st9" d="M233.7,166.8c6.7-0.1,12.3,6.9,12.5,15.6c0.2,8.7-5.1,15.9-11.8,16s-12.3-6.9-12.5-15.6
					C221.7,174,227,166.9,233.7,166.8z"/>
			</g>
		</g>
	</g>
</g>
</svg>
